<?xml version="1.0" encoding="utf-8"?>
<!-- Generator: Adobe Illustrator 19.0.1, SVG Export Plug-In . SVG Version: 6.00 Build 0)  -->
<svg version="1.1" id="tropical" xmlns="http://www.w3.org/2000/svg" xmlns:xlink="http://www.w3.org/1999/xlink" x="0px" y="0px"
	 viewBox="0 0 128 128" style="enable-background:new 0 0 128 128;" xml:space="preserve">
<style type="text/css">
	.st0{display:none;fill:#464445;}
	.st1{display:none;fill-rule:evenodd;clip-rule:evenodd;fill:#464445;}
	.st2{fill:#464445;}
	.st3{fill:#FFFFFF;}
</style>
<g id="row3">
	<path id="bra" class="st0" d="M123.3,112.6c-18.8,12.9-53.7,0-53.7,0l0,0H58.3l0,0c0,0-34.8,12.9-53.7,0c-16-11,13.8-46,23-56.2
		c3-15,3.1-34.1-12.5-43l2.2-3.7c13,7.4,18.4,22,15.6,42c-0.3,1.9-0.6,3.7-0.9,5.5l24.3,51h15.5l24.1-50.7c-0.4-1.9-0.7-3.9-1-5.8
		c-2.8-20.1,2.6-34.6,15.6-42l2.1,3.7C97.1,22.3,97.1,41.1,100,56.1C108.9,65.9,139.6,101.5,123.3,112.6z"/>
	<path id="lemon_2_" class="st0" d="M64,128C28.7,128,0,99.3,0,64C0,28.7,28.7,0,64,0s64,28.7,64,64C128,99.3,99.3,128,64,128z
		 M64,7C32.6,7,7,32.6,7,64c0,31.4,25.6,57,57,57s57-25.6,57-57C121,32.6,95.4,7,64,7z M28.1,28.9c-4.2,4.3-7.7,9.4-10.1,15.1
		L59.3,60L28.1,28.9z M17.1,46.1c-1.9,5-3,10.3-3.2,15.9h44L17.1,46.1z M13.8,64.3c0,6.8,1.4,13.3,3.9,19.1l41-19.1H13.8z
		 M18.6,85.6c2.2,4.7,5.1,9,8.6,12.7L58.5,67L18.6,85.6z M28.9,99.9c4.4,4.3,9.7,7.9,15.5,10.4l16.5-42.4L28.9,99.9z M46.6,111.1
		c5.1,1.9,10.6,3,16.3,3.1V69.3L46.6,111.1z M65.2,68.4v45.8c6.9-0.1,13.4-1.7,19.3-4.3L65.2,68.4z M67.8,68.6l18.8,40.3
		c4.6-2.3,8.9-5.4,12.5-9L67.8,68.6z M68.7,66.2l32,32c4.2-4.5,7.6-9.8,9.9-15.7L68.7,66.2z M42,18.8c-4.5,2.2-8.7,5-12.3,8.4
		l30.4,30.4L42,18.8z M44.2,17.9l18.7,40V13.8C56.2,13.9,49.9,15.4,44.2,17.9z M65.2,13.8v43.1l15.7-40.2
		C75.9,14.9,70.7,13.9,65.2,13.8z M83,17.5L67.1,58.4l31.1-31.1C93.8,23.1,88.7,19.8,83,17.5z M99.9,28.9L69.5,59.3L108.6,41
		C106.3,36.5,103.4,32.4,99.9,28.9z M109.7,43.1L69.2,62h44.9C113.9,55.3,112.3,48.9,109.7,43.1z M70.2,64.3l41.3,16.1
		c1.7-5,2.7-10.4,2.7-16.1H70.2z"/>
	<path id="trouser_1_" class="st0" d="M33.3,36.5c-1.6-1.6-4.3-1.6-5.9,0c-1.6,1.6-1.6,4.3,0,5.9c1.6,1.6,4.3,1.6,5.9,0
		C35,40.7,35,38.1,33.3,36.5z M33.3,36.5c-1.6-1.6-4.3-1.6-5.9,0c-1.6,1.6-1.6,4.3,0,5.9c1.6,1.6,4.3,1.6,5.9,0
		C35,40.7,35,38.1,33.3,36.5z M33.3,36.5c-1.6-1.6-4.3-1.6-5.9,0c-1.6,1.6-1.6,4.3,0,5.9c1.6,1.6,4.3,1.6,5.9,0
		C35,40.7,35,38.1,33.3,36.5z M59.3,25.7c-1.6-1.6-4.3-1.6-5.9,0c-1.6,1.6-1.6,4.3,0,5.9c1.6,1.6,4.3,1.6,5.9,0
		C60.9,29.9,60.9,27.3,59.3,25.7z M106.8,32.1c-1.6-1.6-4.3-1.6-5.9,0c-1.6,1.6-1.6,4.3,0,5.9c1.6,1.6,4.3,1.6,5.9,0
		C108.4,36.4,108.4,33.8,106.8,32.1z M111.5,34.8l-0.2-0.7c-0.4,0.3-0.8,0.6-1.2,0.8c0.6,0.3,1.1,0.7,1.6,1.2L111.5,34.8z
		 M33.3,36.5c-1.6-1.6-4.3-1.6-5.9,0c-1.6,1.6-1.6,4.3,0,5.9c1.6,1.6,4.3,1.6,5.9,0C35,40.7,35,38.1,33.3,36.5z M33.3,36.5
		c-1.6-1.6-4.3-1.6-5.9,0c-1.6,1.6-1.6,4.3,0,5.9c1.6,1.6,4.3,1.6,5.9,0C35,40.7,35,38.1,33.3,36.5z M57.1,58.1
		c-1.6-1.6-4.3-1.6-5.9,0s-1.6,4.3,0,5.9c1.6,1.6,4.3,1.6,5.9,0C58.7,62.3,58.7,59.7,57.1,58.1z M59.3,25.7c-1.6-1.6-4.3-1.6-5.9,0
		c-1.6,1.6-1.6,4.3,0,5.9c1.6,1.6,4.3,1.6,5.9,0C60.9,29.9,60.9,27.3,59.3,25.7z M80.9,45.1c-1.6-1.6-4.3-1.6-5.9,0
		c-1.6,1.6-1.6,4.3,0,5.9c1.6,1.6,4.3,1.6,5.9,0C82.5,49.4,82.5,46.7,80.9,45.1z M106.8,32.1c-1.6-1.6-4.3-1.6-5.9,0
		c-1.6,1.6-1.6,4.3,0,5.9c1.6,1.6,4.3,1.6,5.9,0C108.4,36.4,108.4,33.8,106.8,32.1z M80.9,45.1c-1.6-1.6-4.3-1.6-5.9,0
		c-1.6,1.6-1.6,4.3,0,5.9c1.6,1.6,4.3,1.6,5.9,0C82.5,49.4,82.5,46.7,80.9,45.1z M57.1,58.1c-1.6-1.6-4.3-1.6-5.9,0s-1.6,4.3,0,5.9
		c1.6,1.6,4.3,1.6,5.9,0C58.7,62.3,58.7,59.7,57.1,58.1z M33.3,36.5c-1.6-1.6-4.3-1.6-5.9,0c-1.6,1.6-1.6,4.3,0,5.9
		c1.6,1.6,4.3,1.6,5.9,0C35,40.7,35,38.1,33.3,36.5z M16.1,92.6c-1.6-1.6-4.3-1.6-5.9,0s-1.6,4.3,0,5.9c1.6,1.6,4.3,1.6,5.9,0
		C17.7,96.9,17.7,94.3,16.1,92.6z M29,64.6c-1.6-1.6-4.3-1.6-5.9,0c-1.6,1.6-1.6,4.3,0,5.9c1.6,1.6,4.3,1.6,5.9,0
		C30.6,68.8,30.6,66.2,29,64.6z M33.3,36.5c-1.6-1.6-4.3-1.6-5.9,0c-1.6,1.6-1.6,4.3,0,5.9c1.6,1.6,4.3,1.6,5.9,0
		C35,40.7,35,38.1,33.3,36.5z M57.1,58.1c-1.6-1.6-4.3-1.6-5.9,0s-1.6,4.3,0,5.9c1.6,1.6,4.3,1.6,5.9,0
		C58.7,62.3,58.7,59.7,57.1,58.1z M59.3,25.7c-1.6-1.6-4.3-1.6-5.9,0c-1.6,1.6-1.6,4.3,0,5.9c1.6,1.6,4.3,1.6,5.9,0
		C60.9,29.9,60.9,27.3,59.3,25.7z M80.9,45.1c-1.6-1.6-4.3-1.6-5.9,0c-1.6,1.6-1.6,4.3,0,5.9c1.6,1.6,4.3,1.6,5.9,0
		C82.5,49.4,82.5,46.7,80.9,45.1z M106.8,32.1c-1.6-1.6-4.3-1.6-5.9,0c-1.6,1.6-1.6,4.3,0,5.9c1.6,1.6,4.3,1.6,5.9,0
		C108.4,36.4,108.4,33.8,106.8,32.1z M80.9,45.1c-1.6-1.6-4.3-1.6-5.9,0c-1.6,1.6-1.6,4.3,0,5.9c1.6,1.6,4.3,1.6,5.9,0
		C82.5,49.4,82.5,46.7,80.9,45.1z M57.1,58.1c-1.6-1.6-4.3-1.6-5.9,0s-1.6,4.3,0,5.9c1.6,1.6,4.3,1.6,5.9,0
		C58.7,62.3,58.7,59.7,57.1,58.1z M29,64.6c-1.6-1.6-4.3-1.6-5.9,0c-1.6,1.6-1.6,4.3,0,5.9c1.6,1.6,4.3,1.6,5.9,0
		C30.6,68.8,30.6,66.2,29,64.6z M33.3,36.5c-1.6-1.6-4.3-1.6-5.9,0c-1.6,1.6-1.6,4.3,0,5.9c1.6,1.6,4.3,1.6,5.9,0
		C35,40.7,35,38.1,33.3,36.5z M16.1,92.6c-1.6-1.6-4.3-1.6-5.9,0s-1.6,4.3,0,5.9c1.6,1.6,4.3,1.6,5.9,0
		C17.7,96.9,17.7,94.3,16.1,92.6z M29,64.6c-1.6-1.6-4.3-1.6-5.9,0c-1.6,1.6-1.6,4.3,0,5.9c1.6,1.6,4.3,1.6,5.9,0
		C30.6,68.8,30.6,66.2,29,64.6z M33.3,36.5c-1.6-1.6-4.3-1.6-5.9,0c-1.6,1.6-1.6,4.3,0,5.9c1.6,1.6,4.3,1.6,5.9,0
		C35,40.7,35,38.1,33.3,36.5z M44.2,92.6c-1.6-1.6-4.3-1.6-5.9,0c-1.6,1.6-1.6,4.3,0,5.9c1.6,1.6,4.3,1.6,5.9,0
		C45.8,96.9,45.8,94.3,44.2,92.6z M57.1,58.1c-1.6-1.6-4.3-1.6-5.9,0s-1.6,4.3,0,5.9c1.6,1.6,4.3,1.6,5.9,0
		C58.7,62.3,58.7,59.7,57.1,58.1z M59.3,25.7c-1.6-1.6-4.3-1.6-5.9,0c-1.6,1.6-1.6,4.3,0,5.9c1.6,1.6,4.3,1.6,5.9,0
		C60.9,29.9,60.9,27.3,59.3,25.7z M80.9,45.1c-1.6-1.6-4.3-1.6-5.9,0c-1.6,1.6-1.6,4.3,0,5.9c1.6,1.6,4.3,1.6,5.9,0
		C82.5,49.4,82.5,46.7,80.9,45.1z M83,99.1c-1.6-1.6-4.3-1.6-5.9,0c-1.6,1.6-1.6,4.3,0,5.9c1.6,1.6,4.3,1.6,5.9,0
		C84.7,103.4,84.7,100.7,83,99.1z M106.8,32.1c-1.6-1.6-4.3-1.6-5.9,0c-1.6,1.6-1.6,4.3,0,5.9c1.6,1.6,4.3,1.6,5.9,0
		C108.4,36.4,108.4,33.8,106.8,32.1z M80.9,45.1c-1.6-1.6-4.3-1.6-5.9,0c-1.6,1.6-1.6,4.3,0,5.9c1.6,1.6,4.3,1.6,5.9,0
		C82.5,49.4,82.5,46.7,80.9,45.1z M57.1,58.1c-1.6-1.6-4.3-1.6-5.9,0s-1.6,4.3,0,5.9c1.6,1.6,4.3,1.6,5.9,0
		C58.7,62.3,58.7,59.7,57.1,58.1z M44.2,92.6c-1.6-1.6-4.3-1.6-5.9,0c-1.6,1.6-1.6,4.3,0,5.9c1.6,1.6,4.3,1.6,5.9,0
		C45.8,96.9,45.8,94.3,44.2,92.6z M29,64.6c-1.6-1.6-4.3-1.6-5.9,0c-1.6,1.6-1.6,4.3,0,5.9c1.6,1.6,4.3,1.6,5.9,0
		C30.6,68.8,30.6,66.2,29,64.6z M33.3,36.5c-1.6-1.6-4.3-1.6-5.9,0c-1.6,1.6-1.6,4.3,0,5.9c1.6,1.6,4.3,1.6,5.9,0
		C35,40.7,35,38.1,33.3,36.5z M16.1,92.6c-1.6-1.6-4.3-1.6-5.9,0s-1.6,4.3,0,5.9c1.6,1.6,4.3,1.6,5.9,0
		C17.7,96.9,17.7,94.3,16.1,92.6z M29,64.6c-1.6-1.6-4.3-1.6-5.9,0c-1.6,1.6-1.6,4.3,0,5.9c1.6,1.6,4.3,1.6,5.9,0
		C30.6,68.8,30.6,66.2,29,64.6z M33.3,36.5c-1.6-1.6-4.3-1.6-5.9,0c-1.6,1.6-1.6,4.3,0,5.9c1.6,1.6,4.3,1.6,5.9,0
		C35,40.7,35,38.1,33.3,36.5z M44.2,92.6c-1.6-1.6-4.3-1.6-5.9,0c-1.6,1.6-1.6,4.3,0,5.9c1.6,1.6,4.3,1.6,5.9,0
		C45.8,96.9,45.8,94.3,44.2,92.6z M57.1,58.1c-1.6-1.6-4.3-1.6-5.9,0s-1.6,4.3,0,5.9c1.6,1.6,4.3,1.6,5.9,0
		C58.7,62.3,58.7,59.7,57.1,58.1z M59.3,25.7c-1.6-1.6-4.3-1.6-5.9,0c-1.6,1.6-1.6,4.3,0,5.9c1.6,1.6,4.3,1.6,5.9,0
		C60.9,29.9,60.9,27.3,59.3,25.7z M80.9,75.4c-1.6-1.6-4.3-1.6-5.9,0c-1.6,1.6-1.6,4.3,0,5.9c1.6,1.6,4.3,1.6,5.9,0
		C82.5,79.6,82.5,77,80.9,75.4z M80.9,45.1c-1.6-1.6-4.3-1.6-5.9,0c-1.6,1.6-1.6,4.3,0,5.9c1.6,1.6,4.3,1.6,5.9,0
		C82.5,49.4,82.5,46.7,80.9,45.1z M83,99.1c-1.6-1.6-4.3-1.6-5.9,0c-1.6,1.6-1.6,4.3,0,5.9c1.6,1.6,4.3,1.6,5.9,0
		C84.7,103.4,84.7,100.7,83,99.1z M106.8,32.1c-1.6-1.6-4.3-1.6-5.9,0c-1.6,1.6-1.6,4.3,0,5.9c1.6,1.6,4.3,1.6,5.9,0
		C108.4,36.4,108.4,33.8,106.8,32.1z M111.1,92.6c-1.6-1.6-4.3-1.6-5.9,0s-1.6,4.3,0,5.9c1.6,1.6,4.3,1.6,5.9,0
		C112.8,96.9,112.8,94.3,111.1,92.6z M111.1,92.6c-1.6-1.6-4.3-1.6-5.9,0s-1.6,4.3,0,5.9c1.6,1.6,4.3,1.6,5.9,0
		C112.8,96.9,112.8,94.3,111.1,92.6z M80.9,75.4c-1.6-1.6-4.3-1.6-5.9,0c-1.6,1.6-1.6,4.3,0,5.9c1.6,1.6,4.3,1.6,5.9,0
		C82.5,79.6,82.5,77,80.9,75.4z M80.9,45.1c-1.6-1.6-4.3-1.6-5.9,0c-1.6,1.6-1.6,4.3,0,5.9c1.6,1.6,4.3,1.6,5.9,0
		C82.5,49.4,82.5,46.7,80.9,45.1z M57.1,58.1c-1.6-1.6-4.3-1.6-5.9,0s-1.6,4.3,0,5.9c1.6,1.6,4.3,1.6,5.9,0
		C58.7,62.3,58.7,59.7,57.1,58.1z M44.2,92.6c-1.6-1.6-4.3-1.6-5.9,0c-1.6,1.6-1.6,4.3,0,5.9c1.6,1.6,4.3,1.6,5.9,0
		C45.8,96.9,45.8,94.3,44.2,92.6z M29,64.6c-1.6-1.6-4.3-1.6-5.9,0c-1.6,1.6-1.6,4.3,0,5.9c1.6,1.6,4.3,1.6,5.9,0
		C30.6,68.8,30.6,66.2,29,64.6z M33.3,36.5c-1.6-1.6-4.3-1.6-5.9,0c-1.6,1.6-1.6,4.3,0,5.9c1.6,1.6,4.3,1.6,5.9,0
		C35,40.7,35,38.1,33.3,36.5z M113.9,45.1c-1.9,1.6-5.5,0.7-8.2-2c-0.7-0.7-1.2-1.4-1.7-2.1c-0.4,0.7-1,1.4-1.6,2.1
		c-2.8,2.8-6.6,3.7-8.4,1.8c-1.8-1.8-1-5.6,1.8-8.4c0.6-0.6,1.4-1.2,2.1-1.6c-0.7-0.4-1.4-1-2.1-1.6c-2.8-2.8-3.7-6.6-1.8-8.4
		c1.8-1.8,5.6-1,8.4,1.8c0.6,0.6,1.2,1.4,1.6,2.1c0.4-0.7,1-1.4,1.6-2.1c1-1,2.2-1.8,3.4-2.3l-0.5-2.3H67.4
		c-0.3,1.5-1.2,3.2-2.7,4.6c-0.7,0.7-1.4,1.2-2.1,1.6c0.7,0.4,1.4,1,2.1,1.7c2.8,2.8,3.6,6.6,1.8,8.4c-1.8,1.8-5.6,1-8.4-1.8
		c-0.7-0.7-1.2-1.4-1.7-2.1c-0.4,0.7-1,1.4-1.6,2.1c-2.8,2.8-6.6,3.7-8.4,1.8c-1.8-1.8-1-5.6,1.8-8.4c0.6-0.6,1.4-1.2,2.1-1.6
		c-0.7-0.4-1.4-1-2.1-1.6c-1.4-1.4-2.4-3.1-2.7-4.7H19.4l-2.9,12.7L4.9,84.5c1.9-0.4,4.6,0.6,6.7,2.7c0.6,0.6,1.2,1.4,1.6,2.1
		c0.4-0.7,1-1.4,1.6-2.1c2.8-2.8,6.6-3.6,8.4-1.8c1.8,1.8,1,5.6-1.8,8.4c-0.7,0.7-1.4,1.2-2.1,1.6c0.7,0.4,1.4,1,2.1,1.7
		c2.8,2.8,3.6,6.6,1.8,8.4c-1.8,1.8-5.6,1-8.4-1.8c-0.7-0.7-1.2-1.4-1.7-2.1c-0.4,0.7-1,1.4-1.6,2.1c-2.8,2.8-6.6,3.7-8.4,1.8
		c-1.8-1.8-1-5.6,1.8-8.4c0.6-0.6,1.4-1.2,2.1-1.6c-0.7-0.4-1.4-1-2.1-1.6c-0.7-0.7-1.3-1.5-1.8-2.3L0,105.8l54.2,12.6L64,76.2
		l6.7,29c0.4-0.6,0.8-1.1,1.4-1.6c0.6-0.6,1.4-1.2,2.1-1.6c-0.7-0.4-1.4-1-2.1-1.6c-2.8-2.8-3.7-6.6-1.8-8.4c1.8-1.8,5.6-1,8.4,1.8
		c0.6,0.6,1.2,1.4,1.6,2.1c0.4-0.7,1-1.4,1.6-2.1c2.8-2.8,6.6-3.6,8.4-1.8s1,5.6-1.8,8.4c-0.7,0.7-1.4,1.2-2.1,1.6
		c0.7,0.4,1.4,1,2.1,1.7c2.8,2.8,3.6,6.6,1.8,8.4c-1.8,1.8-5.6,1-8.4-1.8c-0.7-0.7-1.2-1.4-1.7-2.1c-0.4,0.7-1,1.4-1.6,2.1
		c-1.9,1.9-4.3,2.9-6.1,2.8l1.3,5.5l54.2-12.6L113.9,45.1z M22.4,37.6c-2.8-2.8-3.7-6.6-1.8-8.4c1.8-1.8,5.6-1,8.4,1.8
		c0.6,0.6,1.2,1.4,1.6,2.1c0.4-0.7,1-1.4,1.6-2.1c2.8-2.8,6.6-3.6,8.4-1.8c1.8,1.8,1,5.6-1.8,8.4c-0.7,0.7-1.4,1.2-2.1,1.6
		c0.7,0.4,1.4,1,2.1,1.7c2.8,2.8,3.6,6.6,1.8,8.4c-1.8,1.8-5.6,1-8.4-1.8c-0.7-0.7-1.2-1.4-1.7-2.1c-0.4,0.7-1,1.4-1.6,2.1
		c-2.8,2.8-6.6,3.7-8.4,1.8c-1.8-1.8-1-5.6,1.8-8.4c0.6-0.6,1.4-1.2,2.1-1.6C23.8,38.8,23,38.2,22.4,37.6z M26.3,73.4
		c-0.4,0.7-1,1.4-1.6,2.1c-2.8,2.8-6.6,3.7-8.4,1.8c-1.8-1.8-1-5.6,1.8-8.4c0.6-0.6,1.4-1.2,2.1-1.6c-0.7-0.4-1.4-1-2.1-1.6
		c-2.8-2.8-3.7-6.6-1.8-8.4c1.8-1.8,5.6-1,8.4,1.8c0.6,0.6,1.2,1.4,1.6,2.1c0.4-0.7,1-1.4,1.6-2.1c2.8-2.8,6.6-3.6,8.4-1.8
		c1.8,1.8,1,5.6-1.8,8.4c-0.7,0.7-1.4,1.2-2.1,1.6c0.7,0.4,1.4,1,2.1,1.7c2.8,2.8,3.6,6.6,1.8,8.4c-1.8,1.8-5.6,1-8.4-1.8
		C27.3,74.9,26.7,74.1,26.3,73.4z M49.6,97.1c2.8,2.8,3.6,6.6,1.8,8.4c-1.8,1.8-5.6,1-8.4-1.8c-0.7-0.7-1.2-1.4-1.7-2.1
		c-0.4,0.7-1,1.4-1.6,2.1c-2.8,2.8-6.6,3.7-8.4,1.8c-1.8-1.8-1-5.6,1.8-8.4c0.6-0.6,1.4-1.2,2.1-1.6c-0.7-0.4-1.4-1-2.1-1.6
		c-2.8-2.8-3.7-6.6-1.8-8.4c1.8-1.8,5.6-1,8.4,1.8c0.6,0.6,1.2,1.4,1.6,2.1c0.4-0.7,1-1.4,1.6-2.1c2.8-2.8,6.6-3.6,8.4-1.8
		c1.8,1.8,1,5.6-1.8,8.4c-0.7,0.7-1.4,1.2-2.1,1.6C48.2,95.8,48.9,96.4,49.6,97.1z M62.6,62.5c2.8,2.8,3.6,6.6,1.8,8.4
		c-1.8,1.8-5.6,1-8.4-1.8c-0.7-0.7-1.2-1.4-1.7-2.1c-0.4,0.7-1,1.4-1.6,2.1c-2.8,2.8-6.6,3.7-8.4,1.8c-1.8-1.8-1-5.6,1.8-8.4
		c0.6-0.6,1.4-1.2,2.1-1.6c-0.7-0.4-1.4-1-2.1-1.6c-2.8-2.8-3.7-6.6-1.8-8.4c1.8-1.8,5.6-1,8.4,1.8c0.6,0.6,1.2,1.4,1.6,2.1
		c0.4-0.7,1-1.4,1.6-2.1c2.8-2.8,6.6-3.6,8.4-1.8c1.8,1.8,1,5.6-1.8,8.4c-0.7,0.7-1.4,1.2-2.1,1.6C61.2,61.2,61.9,61.8,62.6,62.5z
		 M69.9,46.2c-2.8-2.8-3.7-6.6-1.8-8.4c1.8-1.8,5.6-1,8.4,1.8c0.6,0.6,1.2,1.4,1.6,2.1c0.4-0.7,1-1.4,1.6-2.1
		c2.8-2.8,6.6-3.6,8.4-1.8c1.8,1.8,1,5.6-1.8,8.4c-0.7,0.7-1.4,1.2-2.1,1.6c0.7,0.4,1.4,1,2.1,1.7c2.8,2.8,3.6,6.6,1.8,8.4
		c-1.8,1.8-5.6,1-8.4-1.8c-0.7-0.7-1.2-1.4-1.7-2.1c-0.4,0.7-1,1.4-1.6,2.1c-2.8,2.8-6.6,3.7-8.4,1.8c-1.8-1.8-1-5.6,1.8-8.4
		c0.6-0.6,1.4-1.2,2.1-1.6C71.3,47.4,70.6,46.9,69.9,46.2z M88.2,88.1c-1.8,1.8-5.6,1-8.4-1.8c-0.7-0.7-1.2-1.4-1.7-2.1
		c-0.4,0.7-1,1.4-1.6,2.1c-2.8,2.8-6.6,3.7-8.4,1.8c-1.8-1.8-1-5.6,1.8-8.4c0.6-0.6,1.4-1.2,2.1-1.6c-0.7-0.4-1.4-1-2.1-1.6
		c-2.8-2.8-3.7-6.6-1.8-8.4c1.8-1.8,5.6-1,8.4,1.8c0.6,0.6,1.2,1.4,1.6,2.1c0.4-0.7,1-1.4,1.6-2.1c2.8-2.8,6.6-3.6,8.4-1.8
		c1.8,1.8,1,5.6-1.8,8.4c-0.7,0.7-1.4,1.2-2.1,1.6c0.7,0.4,1.4,1,2.1,1.7C89.2,82.6,90,86.3,88.2,88.1z M89.7,77.3
		c-1.8-1.8-1-5.6,1.8-8.4c0.6-0.6,1.4-1.2,2.1-1.6c-0.7-0.4-1.4-1-2.1-1.6c-2.8-2.8-3.7-6.6-1.8-8.4c1.8-1.8,5.6-1,8.4,1.8
		c0.6,0.6,1.2,1.4,1.6,2.1c0.4-0.7,1-1.4,1.6-2.1c2.8-2.8,6.6-3.6,8.4-1.8c1.8,1.8,1,5.6-1.8,8.4c-0.7,0.7-1.4,1.2-2.1,1.6
		c0.7,0.4,1.4,1,2.1,1.7c2.8,2.8,3.6,6.6,1.8,8.4c-1.8,1.8-5.6,1-8.4-1.8c-0.7-0.7-1.2-1.4-1.7-2.1c-0.4,0.7-1,1.4-1.6,2.1
		C95.3,78.3,91.5,79.2,89.7,77.3z M118.4,105.4c-1.8,1.8-5.6,1-8.4-1.8c-0.7-0.7-1.2-1.4-1.7-2.1c-0.4,0.7-1,1.4-1.6,2.1
		c-2.8,2.8-6.6,3.7-8.4,1.8c-1.8-1.8-1-5.6,1.8-8.4c0.6-0.6,1.4-1.2,2.1-1.6c-0.7-0.4-1.4-1-2.1-1.6c-2.8-2.8-3.7-6.6-1.8-8.4
		c1.8-1.8,5.6-1,8.4,1.8c0.6,0.6,1.2,1.4,1.6,2.1c0.4-0.7,1-1.4,1.6-2.1c2.8-2.8,6.6-3.6,8.4-1.8c1.8,1.8,1,5.6-1.8,8.4
		c-0.7,0.7-1.4,1.2-2.1,1.6c0.7,0.4,1.4,1,2.1,1.7C119.4,99.9,120.2,103.6,118.4,105.4z M105.3,92.6c-1.6,1.6-1.6,4.3,0,5.9
		c1.6,1.6,4.3,1.6,5.9,0c1.6-1.6,1.6-4.3,0-5.9C109.5,91,106.9,91,105.3,92.6z M100.9,32.1c-1.6,1.6-1.6,4.3,0,5.9
		c1.6,1.6,4.3,1.6,5.9,0c1.6-1.6,1.6-4.3,0-5.9C105.2,30.5,102.6,30.5,100.9,32.1z M102.5,70.4c1.6-1.6,1.6-4.3,0-5.9
		c-1.6-1.6-4.3-1.6-5.9,0c-1.6,1.6-1.6,4.3,0,5.9C98.2,72,100.9,72,102.5,70.4z M83,105c1.6-1.6,1.6-4.3,0-5.9
		c-1.6-1.6-4.3-1.6-5.9,0c-1.6,1.6-1.6,4.3,0,5.9C78.8,106.6,81.4,106.6,83,105z M80.9,51c1.6-1.6,1.6-4.3,0-5.9
		c-1.6-1.6-4.3-1.6-5.9,0c-1.6,1.6-1.6,4.3,0,5.9C76.6,52.6,79.3,52.6,80.9,51z M75,75.4c-1.6,1.6-1.6,4.3,0,5.9
		c1.6,1.6,4.3,1.6,5.9,0c1.6-1.6,1.6-4.3,0-5.9C79.3,73.7,76.6,73.7,75,75.4z M59.3,31.5c1.6-1.6,1.6-4.3,0-5.9
		c-1.6-1.6-4.3-1.6-5.9,0c-1.6,1.6-1.6,4.3,0,5.9C55,33.2,57.7,33.2,59.3,31.5z M51.2,58.1c-1.6,1.6-1.6,4.3,0,5.9
		c1.6,1.6,4.3,1.6,5.9,0c1.6-1.6,1.6-4.3,0-5.9S52.9,56.4,51.2,58.1z M38.3,92.6c-1.6,1.6-1.6,4.3,0,5.9c1.6,1.6,4.3,1.6,5.9,0
		c1.6-1.6,1.6-4.3,0-5.9C42.5,91,39.9,91,38.3,92.6z M33.3,42.3c1.6-1.6,1.6-4.3,0-5.9c-1.6-1.6-4.3-1.6-5.9,0
		c-1.6,1.6-1.6,4.3,0,5.9C29.1,44,31.7,44,33.3,42.3z M23.1,64.6c-1.6,1.6-1.6,4.3,0,5.9c1.6,1.6,4.3,1.6,5.9,0
		c1.6-1.6,1.6-4.3,0-5.9C27.4,62.9,24.8,62.9,23.1,64.6z M16.1,98.5c1.6-1.6,1.6-4.3,0-5.9c-1.6-1.6-4.3-1.6-5.9,0s-1.6,4.3,0,5.9
		C11.8,100.1,14.4,100.1,16.1,98.5z M33.3,36.5c-1.6-1.6-4.3-1.6-5.9,0c-1.6,1.6-1.6,4.3,0,5.9c1.6,1.6,4.3,1.6,5.9,0
		C35,40.7,35,38.1,33.3,36.5z M29,64.6c-1.6-1.6-4.3-1.6-5.9,0c-1.6,1.6-1.6,4.3,0,5.9c1.6,1.6,4.3,1.6,5.9,0
		C30.6,68.8,30.6,66.2,29,64.6z M44.2,92.6c-1.6-1.6-4.3-1.6-5.9,0c-1.6,1.6-1.6,4.3,0,5.9c1.6,1.6,4.3,1.6,5.9,0
		C45.8,96.9,45.8,94.3,44.2,92.6z M57.1,58.1c-1.6-1.6-4.3-1.6-5.9,0s-1.6,4.3,0,5.9c1.6,1.6,4.3,1.6,5.9,0
		C58.7,62.3,58.7,59.7,57.1,58.1z M80.9,45.1c-1.6-1.6-4.3-1.6-5.9,0c-1.6,1.6-1.6,4.3,0,5.9c1.6,1.6,4.3,1.6,5.9,0
		C82.5,49.4,82.5,46.7,80.9,45.1z M111.1,92.6c-1.6-1.6-4.3-1.6-5.9,0s-1.6,4.3,0,5.9c1.6,1.6,4.3,1.6,5.9,0
		C112.8,96.9,112.8,94.3,111.1,92.6z M111.1,92.6c-1.6-1.6-4.3-1.6-5.9,0s-1.6,4.3,0,5.9c1.6,1.6,4.3,1.6,5.9,0
		C112.8,96.9,112.8,94.3,111.1,92.6z M106.8,32.1c-1.6-1.6-4.3-1.6-5.9,0c-1.6,1.6-1.6,4.3,0,5.9c1.6,1.6,4.3,1.6,5.9,0
		C108.4,36.4,108.4,33.8,106.8,32.1z M83,99.1c-1.6-1.6-4.3-1.6-5.9,0c-1.6,1.6-1.6,4.3,0,5.9c1.6,1.6,4.3,1.6,5.9,0
		C84.7,103.4,84.7,100.7,83,99.1z M80.9,45.1c-1.6-1.6-4.3-1.6-5.9,0c-1.6,1.6-1.6,4.3,0,5.9c1.6,1.6,4.3,1.6,5.9,0
		C82.5,49.4,82.5,46.7,80.9,45.1z M59.3,25.7c-1.6-1.6-4.3-1.6-5.9,0c-1.6,1.6-1.6,4.3,0,5.9c1.6,1.6,4.3,1.6,5.9,0
		C60.9,29.9,60.9,27.3,59.3,25.7z M57.1,58.1c-1.6-1.6-4.3-1.6-5.9,0s-1.6,4.3,0,5.9c1.6,1.6,4.3,1.6,5.9,0
		C58.7,62.3,58.7,59.7,57.1,58.1z M44.2,92.6c-1.6-1.6-4.3-1.6-5.9,0c-1.6,1.6-1.6,4.3,0,5.9c1.6,1.6,4.3,1.6,5.9,0
		C45.8,96.9,45.8,94.3,44.2,92.6z M33.3,36.5c-1.6-1.6-4.3-1.6-5.9,0c-1.6,1.6-1.6,4.3,0,5.9c1.6,1.6,4.3,1.6,5.9,0
		C35,40.7,35,38.1,33.3,36.5z M29,64.6c-1.6-1.6-4.3-1.6-5.9,0c-1.6,1.6-1.6,4.3,0,5.9c1.6,1.6,4.3,1.6,5.9,0
		C30.6,68.8,30.6,66.2,29,64.6z M16.1,92.6c-1.6-1.6-4.3-1.6-5.9,0s-1.6,4.3,0,5.9c1.6,1.6,4.3,1.6,5.9,0
		C17.7,96.9,17.7,94.3,16.1,92.6z M33.3,36.5c-1.6-1.6-4.3-1.6-5.9,0c-1.6,1.6-1.6,4.3,0,5.9c1.6,1.6,4.3,1.6,5.9,0
		C35,40.7,35,38.1,33.3,36.5z M29,64.6c-1.6-1.6-4.3-1.6-5.9,0c-1.6,1.6-1.6,4.3,0,5.9c1.6,1.6,4.3,1.6,5.9,0
		C30.6,68.8,30.6,66.2,29,64.6z M44.2,92.6c-1.6-1.6-4.3-1.6-5.9,0c-1.6,1.6-1.6,4.3,0,5.9c1.6,1.6,4.3,1.6,5.9,0
		C45.8,96.9,45.8,94.3,44.2,92.6z M57.1,58.1c-1.6-1.6-4.3-1.6-5.9,0s-1.6,4.3,0,5.9c1.6,1.6,4.3,1.6,5.9,0
		C58.7,62.3,58.7,59.7,57.1,58.1z M80.9,45.1c-1.6-1.6-4.3-1.6-5.9,0c-1.6,1.6-1.6,4.3,0,5.9c1.6,1.6,4.3,1.6,5.9,0
		C82.5,49.4,82.5,46.7,80.9,45.1z M106.8,32.1c-1.6-1.6-4.3-1.6-5.9,0c-1.6,1.6-1.6,4.3,0,5.9c1.6,1.6,4.3,1.6,5.9,0
		C108.4,36.4,108.4,33.8,106.8,32.1z M80.9,45.1c-1.6-1.6-4.3-1.6-5.9,0c-1.6,1.6-1.6,4.3,0,5.9c1.6,1.6,4.3,1.6,5.9,0
		C82.5,49.4,82.5,46.7,80.9,45.1z M59.3,25.7c-1.6-1.6-4.3-1.6-5.9,0c-1.6,1.6-1.6,4.3,0,5.9c1.6,1.6,4.3,1.6,5.9,0
		C60.9,29.9,60.9,27.3,59.3,25.7z M57.1,58.1c-1.6-1.6-4.3-1.6-5.9,0s-1.6,4.3,0,5.9c1.6,1.6,4.3,1.6,5.9,0
		C58.7,62.3,58.7,59.7,57.1,58.1z M44.2,92.6c-1.6-1.6-4.3-1.6-5.9,0c-1.6,1.6-1.6,4.3,0,5.9c1.6,1.6,4.3,1.6,5.9,0
		C45.8,96.9,45.8,94.3,44.2,92.6z M33.3,36.5c-1.6-1.6-4.3-1.6-5.9,0c-1.6,1.6-1.6,4.3,0,5.9c1.6,1.6,4.3,1.6,5.9,0
		C35,40.7,35,38.1,33.3,36.5z M29,64.6c-1.6-1.6-4.3-1.6-5.9,0c-1.6,1.6-1.6,4.3,0,5.9c1.6,1.6,4.3,1.6,5.9,0
		C30.6,68.8,30.6,66.2,29,64.6z M16.1,92.6c-1.6-1.6-4.3-1.6-5.9,0s-1.6,4.3,0,5.9c1.6,1.6,4.3,1.6,5.9,0
		C17.7,96.9,17.7,94.3,16.1,92.6z M33.3,36.5c-1.6-1.6-4.3-1.6-5.9,0c-1.6,1.6-1.6,4.3,0,5.9c1.6,1.6,4.3,1.6,5.9,0
		C35,40.7,35,38.1,33.3,36.5z M29,64.6c-1.6-1.6-4.3-1.6-5.9,0c-1.6,1.6-1.6,4.3,0,5.9c1.6,1.6,4.3,1.6,5.9,0
		C30.6,68.8,30.6,66.2,29,64.6z M57.1,58.1c-1.6-1.6-4.3-1.6-5.9,0s-1.6,4.3,0,5.9c1.6,1.6,4.3,1.6,5.9,0
		C58.7,62.3,58.7,59.7,57.1,58.1z M80.9,45.1c-1.6-1.6-4.3-1.6-5.9,0c-1.6,1.6-1.6,4.3,0,5.9c1.6,1.6,4.3,1.6,5.9,0
		C82.5,49.4,82.5,46.7,80.9,45.1z M106.8,32.1c-1.6-1.6-4.3-1.6-5.9,0c-1.6,1.6-1.6,4.3,0,5.9c1.6,1.6,4.3,1.6,5.9,0
		C108.4,36.4,108.4,33.8,106.8,32.1z M80.9,45.1c-1.6-1.6-4.3-1.6-5.9,0c-1.6,1.6-1.6,4.3,0,5.9c1.6,1.6,4.3,1.6,5.9,0
		C82.5,49.4,82.5,46.7,80.9,45.1z M59.3,25.7c-1.6-1.6-4.3-1.6-5.9,0c-1.6,1.6-1.6,4.3,0,5.9c1.6,1.6,4.3,1.6,5.9,0
		C60.9,29.9,60.9,27.3,59.3,25.7z M57.1,58.1c-1.6-1.6-4.3-1.6-5.9,0s-1.6,4.3,0,5.9c1.6,1.6,4.3,1.6,5.9,0
		C58.7,62.3,58.7,59.7,57.1,58.1z M33.3,36.5c-1.6-1.6-4.3-1.6-5.9,0c-1.6,1.6-1.6,4.3,0,5.9c1.6,1.6,4.3,1.6,5.9,0
		C35,40.7,35,38.1,33.3,36.5z M29,64.6c-1.6-1.6-4.3-1.6-5.9,0c-1.6,1.6-1.6,4.3,0,5.9c1.6,1.6,4.3,1.6,5.9,0
		C30.6,68.8,30.6,66.2,29,64.6z M33.3,36.5c-1.6-1.6-4.3-1.6-5.9,0c-1.6,1.6-1.6,4.3,0,5.9c1.6,1.6,4.3,1.6,5.9,0
		C35,40.7,35,38.1,33.3,36.5z M80.9,45.1c-1.6-1.6-4.3-1.6-5.9,0c-1.6,1.6-1.6,4.3,0,5.9c1.6,1.6,4.3,1.6,5.9,0
		C82.5,49.4,82.5,46.7,80.9,45.1z M106.8,32.1c-1.6-1.6-4.3-1.6-5.9,0c-1.6,1.6-1.6,4.3,0,5.9c1.6,1.6,4.3,1.6,5.9,0
		C108.4,36.4,108.4,33.8,106.8,32.1z M80.9,45.1c-1.6-1.6-4.3-1.6-5.9,0c-1.6,1.6-1.6,4.3,0,5.9c1.6,1.6,4.3,1.6,5.9,0
		C82.5,49.4,82.5,46.7,80.9,45.1z M59.3,25.7c-1.6-1.6-4.3-1.6-5.9,0c-1.6,1.6-1.6,4.3,0,5.9c1.6,1.6,4.3,1.6,5.9,0
		C60.9,29.9,60.9,27.3,59.3,25.7z M33.3,36.5c-1.6-1.6-4.3-1.6-5.9,0c-1.6,1.6-1.6,4.3,0,5.9c1.6,1.6,4.3,1.6,5.9,0
		C35,40.7,35,38.1,33.3,36.5z M33.3,36.5c-1.6-1.6-4.3-1.6-5.9,0c-1.6,1.6-1.6,4.3,0,5.9c1.6,1.6,4.3,1.6,5.9,0
		C35,40.7,35,38.1,33.3,36.5z M59.3,25.7c-1.6-1.6-4.3-1.6-5.9,0c-1.6,1.6-1.6,4.3,0,5.9c1.6,1.6,4.3,1.6,5.9,0
		C60.9,29.9,60.9,27.3,59.3,25.7z M56.4,22.1c0,0.1,0.1,0.1,0.1,0.2c0-0.1,0.1-0.1,0.1-0.2H56.4z M33.3,36.5c-1.6-1.6-4.3-1.6-5.9,0
		c-1.6,1.6-1.6,4.3,0,5.9c1.6,1.6,4.3,1.6,5.9,0C35,40.7,35,38.1,33.3,36.5z M19.4,9.6v8.8h89.2V9.6H19.4z"/>
	<path id="lotion_1_" class="st0" d="M54,0v32h20V0H54z M30.9,36v85.4c0,3.6,2.9,6.6,6.6,6.6h53.1c3.6,0,6.6-3,6.6-6.6V36H30.9z
		 M83.9,112.5H44.1v-54h39.8V112.5z M74.7,85.5c0,5.9-4.8,10.7-10.7,10.7s-10.7-4.8-10.7-10.7S58.1,74.8,64,74.8
		S74.7,79.6,74.7,85.5z"/>
	<path id="Hammock" class="st0" d="M113.9,48.7c8.3,3.3,10.2,12.8,10.2,12.8s-3.7-3.8-6.3-3.4c-2.6,0.4-2.2-1.8-3.9-2.3
		s-1.5,1.2-4,0c-2.4-1.2-1.4-2.5-2.9-3.1c-0.1,0-0.2-0.1-0.2-0.1c-0.1-0.1-0.3-0.2-0.4-0.3c0,0.1,0.1,0.2,0.1,0.3
		c4.3,11.6,7.1,43.8,7.1,43.8s-7,0.4-10.8-1c1.3-3.8,1.9-16.3,2.1-20.9c-2.1,1-8.7,4-15.9,6.6c-2.9,5.9-12.9,17.3-26.6,16.9
		c-13-0.4-23.7-12.4-25.9-17c-1.9-0.7-3.7-1.4-5.4-2.2c-3.7-1.7-6.4-3.2-8-4.2c0.2,4.6,0.8,17,2.1,20.8c-3.8,1.4-10.8,1-10.8,1
		s2.7-32.2,7.1-43.8c0-0.1,0.1-0.2,0.1-0.3c-0.1,0.1-0.3,0.2-0.4,0.3c-0.1,0-0.2,0.1-0.2,0.1c-1.5,0.6-0.5,1.9-3,3.1
		c-2.4,1.2-2.3-0.5-4,0c-1.7,0.6-1.4,2.7-3.9,2.3c-2.6-0.4-6.3,3.4-6.3,3.4S5.8,52,14.1,48.7c-2-0.7-1-1.8-2.6-2.4
		c-1.7-0.6-2.8,1.2-4.5-0.7c-1.7-1.9-7-1.4-7-1.4s7.1-5.7,15.3-3.5c0-0.7,0.4-1.2-0.2-2.1c-1-1.5-3-0.7-3.2-3.2
		c-0.2-2.6-4.8-5.3-4.8-5.3s14.6-0.7,17.6,13.2c8.4-14.2,22.9-6.6,22.9-6.6s-5.3,0.5-6.6,2.7c-1.3,2.2-2.8,0.6-4.3,1.6
		c-0.9,0.6-0.7,1.2-1,1.8C44,44.2,48,52.4,48,52.4s-4.6-2.7-6.9-1.7c-2.4,1-2.6-1.1-4.4-1.2c-1.8-0.1-1.2,1.5-3.8,1
		c-0.1,0-0.2,0-0.3-0.1c6,7.4,2.2,17,2.2,17s-1.1-5.2-3.4-6.3C29,60,30.4,58.4,29.3,57c-1.1-1.4-1.9,0.2-3.3-2.2
		c-0.4-0.7-1.7-2.3-1.7-2.3c-0.5,3.4-1.4,11.2-1.2,19.3c1.4,0.9,4.3,2.7,9.1,4.9c14.7,6.9,39.7,8,55.6,2.4
		c7.5-2.6,15.2-6.3,17.4-7.4c0.2-8.1-0.7-15.9-1.2-19.2c0,0-1.4,1.7-1.7,2.3c-1.4,2.3-2.2,0.8-3.3,2.2c-1.1,1.4,0.3,3-2,4.1
		c-2.4,1.1-3.4,6.3-3.4,6.3s-3.8-9.6,2.2-17c-0.1,0-0.2,0-0.3,0.1c-2.7,0.5-2.1-1.1-3.8-1c-1.8,0.1-2,2.3-4.4,1.2
		c-2.4-1-6.9,1.7-6.9,1.7s4-8.2,12.4-9.6c-0.3-0.6-0.1-1.2-1-1.8c-1.5-0.9-3,0.7-4.3-1.6c-1.3-2.2-6.6-2.7-6.6-2.7
		s14.5-7.6,22.9,6.6c2.9-13.8,17.6-13.2,17.6-13.2s-4.6,2.7-4.8,5.3c-0.2,2.6-2.2,1.7-3.2,3.2c-0.6,0.9-0.2,1.4-0.2,2.1
		c8.2-2.2,15.3,3.5,15.3,3.5s-5.3-0.5-7,1.4c-1.7,1.9-2.8,0.1-4.5,0.7C114.9,46.9,115.9,48.1,113.9,48.7z"/>
</g>
<g id="row2">
	<path id="guitar" class="st0" d="M125.4,17.9l2.6-2.6l-4-4l1.9-1.9L118.6,2L116.7,4L112.8,0l-2.6,2.6l3.9,3.9l-1.9,1.9l-3.9-3.9
		l-2.6,2.6l3.9,3.9l-1.9,1.9l-3.9-3.9l-2.6,2.6l3.9,3.9L64,56.7C46,40.3,36.6,61.8,34.2,66.2c-59.2,13.2-23.5,46.9-23.5,46.9
		l4.2,4.2c0,0,33.7,35.6,46.9-23.5c4.5-2.5,25.9-11.8,9.5-29.8l41.3-41.3l4,4l2.6-2.6l-4-4l1.9-1.9l4,4l2.6-2.6l-4-4l1.9-1.9
		L125.4,17.9z M43.4,99.7L28.3,84.5l3.2-3.2l15.1,15.1L43.4,99.7z M61.2,82.1c-4.2,4.2-11.1,4.2-15.3,0c-4.2-4.2-4.2-11.1,0-15.3
		c2.9-2.9,7-3.8,10.7-2.7l-3,3c-1.9,0-3.8,0.7-5.3,2.2c-2.9,2.9-2.9,7.5,0,10.4c2.9,2.9,7.5,2.9,10.4,0c1.4-1.4,2.2-3.4,2.1-5.2
		l3.1-3C65,75,64.1,79.2,61.2,82.1z"/>
	<path id="toucan" class="st1" d="M42.6,41.7C22.6,55,5.1,74.5,0,82.6c0,0,4.9-40.9,33.5-59.3c24.7-35.5,66.6-24.1,62.4,29
		C93.5,83.4,128,74.4,128,74.4l-70.5,50.8c0,0-1.9-8.6,0.8-22.5c2.1-10.4,3.7-36.6-5.9-40.1C32.2,66.4,12.6,76.3,3.3,83.3
		c5.6-8.6,22-25.9,40.3-38.5l0,0.1c1.8,4.3,5.4,8.9,8.9,11.7c1.9,1.6,3.3,3.1,5.5,4.9c7.1,6,5.4,24.8,5.2,25.8
		c11.8-19.4,26.6-36,17-48.5C100.5,0.7,36.3-4,42,38.4c0.1,1.1,0.2,2.1,0.5,3.2C42.5,41.6,42.6,41.7,42.6,41.7z M61.6,18.3
		c-2.6,0-4.7,3.8-4.7,8.5s2.1,8.5,4.7,8.5s4.7-3.8,4.7-8.5S64.2,18.3,61.6,18.3z"/>
	<path id="Tropical_x5F_flower" class="st1" d="M96,60.4c4.4-2.5,9.9-5.8,15.9-10c14.4-10.3,2.7-22-12.1-20.8
		C77.9-20.1,68,44.6,68.5,51.7c-2.6-4.5-7.5-12.3-14.5-21c-9.7-11.9-19.1-4.1-20,7.8c12.2,12.9,25.7,21.1,34.5,25.6l-2-4.2l6.4,4.4
		l1.1-7.7l2.9,7.2l5.1-5.9l-1.4,7.6l7.5-2.2L82.6,69l7.5,2.2l-7.5,1.9l5.1,5.9l-7.3-2.5l1.1,7.7L76.6,78l-3.2,7.1l-0.8-7.7L66,81.6
		l3.5-6.9l-7.8,0l5.4-3.2C58.3,67.3,44,59.2,30.6,45.6C-11.8,78.8,45.9,74.1,55,74.3c-4.3,3-11.4,8.2-19,15.4
		c-12.9,12.1,0.3,22.1,14.7,19c19.6,33.8,28.5-1.7,29.7-7.5c0.6-2.9,1.1-5.9,1.5-8.7c5,8.6,7.2,13.2,11.6,17.3
		c12.9,12.2,23.7-5.3,19.7-19.5C150.9,66.3,105.6,60.3,96,60.4z M73.2,72.6c-0.4-0.2-43.8-18.9-63-56.9l3.2-1.6
		c18.6,36.8,60.8,55,61.2,55.2L73.2,72.6z M7.3,5C5.4,5,3.9,6.6,3.9,8.5s1.5,3.4,3.4,3.4s3.4-1.5,3.4-3.4S9.2,5,7.3,5z M22.3,9.3
		c0,2.5-2,4.5-4.5,4.5s-4.5-2-4.5-4.5s2-4.5,4.5-4.5S22.3,6.8,22.3,9.3z M27.8,19.4c0,2.5-2,4.5-4.5,4.5s-4.5-2-4.5-4.5
		s2-4.5,4.5-4.5S27.8,16.9,27.8,19.4z M33.7,28.4c0,2.5-2,4.5-4.5,4.5s-4.5-2-4.5-4.5s2-4.5,4.5-4.5S33.7,25.9,33.7,28.4z M9,19
		c0,2.5-2,4.5-4.5,4.5S0,21.5,0,19s2-4.5,4.5-4.5S9,16.5,9,19z M13.1,28.4c0,2.5-2,4.5-4.5,4.5s-4.5-2-4.5-4.5s2-4.5,4.5-4.5
		S13.1,25.9,13.1,28.4z M20.6,36c0,2.5-2,4.5-4.5,4.5s-4.5-2-4.5-4.5c0-2.5,2-4.5,4.5-4.5S20.6,33.5,20.6,36z"/>
	<path id="t-shirt_2_" class="st0" d="M96.2,10.8c0.3,0.3,0.4,0.7,0.4,1.2c-0.1,1.4-5,9.7-5,9.7s-4.9-8.3-5-9.7
		c-0.1-1.4,1.8-2.3,2.8-2.1c1,0.2,1.4,0.8,2.2,0.8c0.7-0.1,1.1-0.5,1.8-0.7c-2.7-0.8-5.5-1.3-8.2-1.3c-0.5,0-0.5,0-0.5,0
		s-10.3,3.5-20.4,3.5C54.6,12.1,45,8.6,45,8.6s0,0-0.5,0c-3.6,0-7.3,0.7-10.8,1.9c-1.4,2.9-4.2,7.6-4.2,7.6s-1.4-2.3-2.7-4.7
		c-0.3,0.2-0.7,0.3-1,0.5c1.8,2.1,3.6,4.3,3.6,4.3s-9.1,2.3-10.4,1.9c-0.6-0.2-1-0.7-1.1-1.3C7.4,26.2,0,34.6,0,34.6l19,20.8l2-1.2
		c-0.4-0.2-0.9-0.1-1.4-0.4c-0.6-0.3-1.4-1.7-0.8-2.5c0.7-0.8,7-3.5,7-3.5s-0.1,1.9-0.3,3.8l0.4-0.2v25.6c0.4-0.4,1-0.7,1.5-0.5
		c1,0.4,5.4,5.8,5.4,5.8s-4.8,1.2-6.9,1.4v2.1c1.1-0.9,6.9-3.4,6.9-3.4s-0.5,7.1-1.1,8c-0.6,0.9-2,0.6-2.5,0c-0.5-0.5-0.5-1.1-1-1.4
		c-0.5-0.3-1-0.2-1.6-0.5c-0.2-0.1-0.5-0.4-0.7-0.7v31.7h2.9c-0.6-0.8-1-2-0.4-2.8c0.9-1.1,9.5-4.8,9.5-4.8s-0.3,4.4-0.8,7.6h1.6
		c-0.4-3.2-0.8-7.6-0.8-7.6s8.6,3.7,9.5,4.8c0.7,0.8,0.2,2.1-0.4,2.8h8.5c0-0.2,0.1-0.4,0.2-0.5c0.4-0.9,1.2-1.1,1.4-1.9
		c0.2-0.8-0.2-1.4,0-2.4c0.2-1,1.5-2.6,2.8-2.1c1,0.4,4.9,5,6.6,7h0.3c-1.3-2.2-4.4-7.6-4.4-8.8c-0.1-1.4,1.8-2.3,2.8-2.1
		c1,0.2,1.4,0.8,2.2,0.8c0.8-0.1,1.2-0.6,2.2-0.8c1-0.1,2.9,0.7,2.8,2.1c-0.1,1.1-3.2,6.6-4.4,8.8h0.3c1.7-2,5.6-6.6,6.6-7
		c1.3-0.5,2.7,1.1,2.8,2.1c0.2,1-0.3,1.6,0,2.4c0.3,0.8,0.9,1,1.4,1.9c0.1,0.2,0.1,0.3,0.2,0.5h24.6V99.8
		c-1.6,0.2-10.3-1.9-10.3-1.9s6.1-7.4,7.4-7.9c1.3-0.5,2.7,1.1,2.8,2.1c0.2,1-0.3,1.6,0,2.4c0.1,0.1,0.1,0.2,0.2,0.3V51.3l6.9,4.1
		L128,34.6C128,34.6,113,17,96.2,10.8z M93.3,37.2c0.7-0.1,2.1,0.5,2,1.6c-0.1,1.1-3.7,7.1-3.7,7.1s-3.6-6.1-3.7-7.1
		c-0.1-1.1,1.3-1.7,2-1.6c0.7,0.1,1,0.6,1.6,0.6C92.3,37.7,92.6,37.3,93.3,37.2z M99.2,43.4c0.2,0.6,0.7,0.8,1,1.4
		c0.3,0.7,0.2,2.2-0.8,2.5c-1,0.3-7.7-1.4-7.7-1.4s4.4-5.4,5.4-5.8c1-0.4,2,0.8,2.1,1.5C99.3,42.3,99,42.8,99.2,43.4z M89.8,67.6
		c-0.7-0.2-0.8-1.3-0.6-1.7c0.2-0.5,0.6-0.6,0.7-1c0.1-0.4-0.1-0.7,0-1.2c0.1-0.5,0.8-1.3,1.4-1.1c0.7,0.3,3.7,4,3.7,4
		S90.5,67.8,89.8,67.6z M95.1,66.7c0,0-0.4,4.9-0.7,5.5c-0.4,0.6-1.4,0.4-1.7,0c-0.3-0.4-0.3-0.8-0.7-1c-0.3-0.2-0.7-0.2-1.1-0.4
		c-0.4-0.2-1-1.2-0.5-1.7C90.7,68.5,95.1,66.7,95.1,66.7z M84.2,41.6c0.1-0.7,1.1-1.9,2.1-1.5c1,0.4,5.4,5.8,5.4,5.8
		S85,47.6,84,47.3c-1-0.3-1.1-1.8-0.8-2.5c0.3-0.7,0.8-0.8,1-1.4C84.3,42.8,84,42.3,84.2,41.6z M84.7,49.5c0.7-0.8,7-3.5,7-3.5
		s-0.5,7.1-1.1,8c-0.6,0.9-2,0.6-2.5,0c-0.5-0.5-0.5-1.1-1-1.4c-0.5-0.3-1-0.2-1.6-0.5C84.8,51.6,84,50.3,84.7,49.5z M86.7,71.2
		c1-0.4,2,0.8,2.1,1.5c0.1,0.7-0.2,1.2,0,1.8c0.2,0.6,0.7,0.8,1,1.4c0.3,0.7,0.2,2.2-0.8,2.5c-1,0.3-7.7-1.4-7.7-1.4
		S85.8,71.6,86.7,71.2z M92.6,61.7c-0.1-0.7,0.9-1.2,1.4-1.1c0.5,0.1,0.7,0.4,1.1,0.4c0.4,0,0.6-0.3,1.1-0.4
		c0.5-0.1,1.5,0.4,1.4,1.1c-0.1,0.7-2.5,4.9-2.5,4.9S92.7,62.4,92.6,61.7z M96.3,52.5c-0.5,0.4-0.5,0.9-1,1.4c-0.5,0.5-2,0.9-2.5,0
		c-0.5-0.9-1.1-8-1.1-8s6.3,2.7,7,3.5c0.7,0.8-0.1,2.2-0.8,2.5C97.3,52.3,96.8,52.1,96.3,52.5z M90.2,32.7c-0.7,1.2-2.8,0.7-3.5,0
		c-0.7-0.7-0.7-1.5-1.4-2c-0.7-0.4-1.3-0.3-2.2-0.7c-0.8-0.5-1.9-2.3-1-3.4c0.9-1.1,9.5-4.8,9.5-4.8S90.9,31.4,90.2,32.7z
		 M45.1,12.1c1.1,0.4,10.4,3.4,19.6,3.4c9.4,0,18.8-3,19.9-3.4c0.1-0.3,0.1,0,0.1,0s0,0-0.1,0c0,0.1,0,0.2-0.1,0.3
		c-0.1,0.5-0.1,0.9-0.2,1.3c1.5,0.8,7.2,7.9,7.2,7.9s-9.1,2.3-10.4,1.9c-0.4-0.1-0.8-0.4-1-0.8c-2,2.4-4.6,4.1-7.4,5.2
		c0,0.1,0,0.2,0,0.3c-0.1,1.1-3.7,7.1-3.7,7.1s-2.3-3.9-3.3-6c-9.5,0.4-19.4-5.3-20.8-17.1C45.1,12.2,45.1,12.2,45.1,12.1
		c-0.1,0-0.1,0-0.1,0S45,12,45.1,12.1z M73.8,72.7c0.1-0.7,1.1-1.9,2.1-1.5c1,0.4,5.4,5.8,5.4,5.8s-6.7,1.7-7.7,1.4
		c-1-0.3-1.1-1.8-0.8-2.5c0.3-0.7,0.8-0.8,1-1.4C73.9,73.9,73.7,73.5,73.8,72.7z M75.5,67.1c-0.6,0.5-0.7,1.2-1.4,2
		c-0.7,0.7-2.7,1.2-3.5,0c-0.7-1.2-1.5-10.9-1.5-10.9s8.6,3.7,9.5,4.8c0.9,1.1-0.2,3-1,3.4C76.9,66.8,76.1,66.5,75.5,67.1z
		 M32.9,82.2c0,0,4.4-5.4,5.4-5.8c1-0.4,2,0.8,2.1,1.5c0.1,0.7-0.2,1.2,0,1.8c0.2,0.6,0.7,0.8,1,1.4c0.3,0.7,0.2,2.2-0.8,2.5
		C39.6,83.9,32.9,82.2,32.9,82.2z M39.1,88.3c-0.6,0.3-1.2,0.1-1.6,0.5c-0.5,0.4-0.5,0.9-1,1.4c-0.5,0.5-2,0.9-2.5,0
		c-0.5-0.9-1.1-8-1.1-8s6.3,2.7,7,3.5C40.5,86.6,39.8,88,39.1,88.3z M39.6,69.5c-0.5-0.5-0.5-1.1-1-1.4c-0.5-0.3-1-0.2-1.6-0.5
		c-0.6-0.3-1.4-1.7-0.8-2.5c0.7-0.8,7-3.5,7-3.5s-0.5,7.1-1.1,8C41.6,70.4,40.1,70.1,39.6,69.5z M33.5,45.1c0.2,0.6,0.7,0.8,1,1.4
		c0.3,0.7,0.2,2.2-0.8,2.5c-1,0.3-7.7-1.4-7.7-1.4s4.4-5.4,5.4-5.8c1-0.4,2,0.8,2.1,1.5C33.6,44.1,33.2,44.5,33.5,45.1z M34.7,60.4
		c0.3-0.7,0.8-0.8,1-1.4c0.2-0.6-0.1-1,0-1.8c0.1-0.7,1.1-1.9,2.1-1.5c1,0.4,5.4,5.8,5.4,5.8s-6.7,1.7-7.7,1.4
		C34.5,62.6,34.4,61,34.7,60.4z M36.5,33.2c0.2-1,1.5-2.6,2.8-2.1c1.3,0.5,7.4,7.9,7.4,7.9s-9.1,2.3-10.4,1.9
		c-1.3-0.3-1.5-2.5-1.1-3.4c0.4-0.9,1.2-1.1,1.4-1.9C36.7,34.8,36.3,34.2,36.5,33.2z M46.7,39.1c0,0-0.7,9.7-1.5,10.9
		c-0.7,1.2-2.8,0.7-3.5,0c-0.7-0.7-0.7-1.5-1.4-2c-0.7-0.4-1.3-0.3-2.2-0.7c-0.8-0.5-1.9-2.3-1-3.4C38,42.8,46.7,39.1,46.7,39.1z
		 M39.6,54.3c-0.1-1.1,1.3-1.7,2-1.6c0.7,0.1,1,0.6,1.6,0.6c0.6-0.1,0.9-0.4,1.6-0.6c0.7-0.1,2.1,0.5,2,1.6
		c-0.1,1.1-3.7,7.1-3.7,7.1S39.6,55.4,39.6,54.3z M43.7,84c0.5-1,1.3-1.3,1.6-2.2c0.2-1-0.2-1.6,0-2.8c0.2-1.2,1.8-3,3.3-2.4
		c1.5,0.6,8.5,9.2,8.5,9.2S46.5,88.4,45,87.9C43.4,87.5,43.2,85.1,43.7,84z M43.3,61.5c0,0,6.3,2.7,7,3.5c0.7,0.8-0.1,2.2-0.8,2.5
		c-0.6,0.3-1.2,0.1-1.6,0.5s-0.5,0.9-1,1.4c-0.5,0.5-2,0.9-2.5,0C43.8,68.6,43.3,61.5,43.3,61.5z M43.3,61.5c0,0,4.4-5.4,5.4-5.8
		c1-0.4,2,0.8,2.1,1.5c0.1,0.7-0.2,1.2,0,1.8c0.2,0.6,0.7,0.8,1,1.4c0.3,0.7,0.2,2.2-0.8,2.5C50,63.1,43.3,61.5,43.3,61.5z M51.6,50
		c-0.7,0.7-2.7,1.2-3.5,0c-0.7-1.2-1.5-10.9-1.5-10.9s8.6,3.7,9.5,4.8c0.9,1.1-0.2,3-1,3.4c-0.9,0.5-1.6,0.2-2.2,0.7
		C52.4,48.6,52.3,49.3,51.6,50z M46.8,39c0,0,6.1-7.4,7.4-7.9c1.3-0.5,2.7,1.1,2.8,2.1c0.2,1-0.3,1.6,0,2.4c0.3,0.8,0.9,1,1.4,1.9
		c0.4,0.9,0.2,3.1-1.1,3.4C55.8,41.3,46.8,39,46.8,39z M57.6,56.5c0.4-0.9,1.2-1.1,1.4-1.9c0.2-0.8-0.2-1.4,0-2.4
		c0.2-1,1.5-2.6,2.8-2.1c1.3,0.5,7.4,7.9,7.4,7.9s-9.1,2.3-10.4,1.9C57.4,59.6,57.2,57.4,57.6,56.5z M61.7,31.2
		c0.1-0.7,1.1-1.9,2.1-1.5c1,0.4,5.4,5.8,5.4,5.8s-6.7,1.7-7.7,1.4c-1-0.3-1.1-1.8-0.8-2.5c0.3-0.7,0.8-0.8,1-1.4
		C61.8,32.4,61.6,32,61.7,31.2z M76.7,33c0.2,0.6,0.7,0.8,1,1.4c0.3,0.7,0.2,2.2-0.8,2.5c-1,0.3-7.7-1.4-7.7-1.4s4.4-5.4,5.4-5.8
		c1-0.4,2,0.8,2.1,1.5C76.8,32,76.5,32.4,76.7,33z M76.2,39.1c0.7,0.8-0.1,2.2-0.8,2.5c-0.6,0.3-1.2,0.1-1.6,0.5s-0.5,0.9-1,1.4
		c-0.5,0.5-2,0.9-2.5,0c-0.5-0.9-1.1-8-1.1-8S75.6,38.3,76.2,39.1z M71.4,46.1c1-0.1,2.9,0.7,2.8,2.1c-0.1,1.4-5,9.7-5,9.7
		s-4.9-8.3-5-9.7C64.1,46.9,66,46,67,46.1c1,0.2,1.4,0.8,2.2,0.8C70,46.9,70.4,46.3,71.4,46.1z M68.1,43.6c-0.6,0.9-2,0.6-2.5,0
		c-0.5-0.5-0.5-1.1-1-1.4c-0.5-0.3-1-0.2-1.6-0.5c-0.6-0.3-1.4-1.7-0.8-2.5c0.7-0.8,7-3.5,7-3.5S68.6,42.7,68.1,43.6z M59.6,62.9
		c0.9-1.1,9.5-4.8,9.5-4.8s-0.7,9.7-1.5,10.9c-0.7,1.2-2.8,0.7-3.5,0c-0.7-0.7-0.7-1.5-1.4-2c-0.7-0.4-1.3-0.3-2.2-0.7
		C59.8,65.9,58.7,64,59.6,62.9z M65.6,76.6c1.5-0.6,3.1,1.2,3.3,2.4c0.2,1.1-0.3,1.9,0,2.8c0.3,0.9,1.1,1.2,1.6,2.2
		c0.5,1,0.3,3.5-1.3,3.9c-1.6,0.4-12.1-2.2-12.1-2.2S64.1,77.2,65.6,76.6z M69.2,58c0,0,6.1-7.4,7.4-7.9c1.3-0.5,2.7,1.1,2.8,2.1
		c0.2,1-0.3,1.6,0,2.4c0.3,0.8,0.9,1,1.4,1.9c0.4,0.9,0.2,3.1-1.1,3.4C78.3,60.3,69.2,58,69.2,58z M44.5,27.1c1,0.2,1.4,0.8,2.2,0.8
		c0.8-0.1,1.2-0.6,2.2-0.8c1-0.1,2.9,0.7,2.8,2.1c-0.1,1.4-5,9.7-5,9.7s-4.9-8.3-5-9.7C41.6,27.8,43.5,27,44.5,27.1z M36.8,10.3
		c1.3-0.5,2.7,1.1,2.8,2.1c0.2,1-0.3,1.6,0,2.4c0.3,0.8,0.9,1,1.4,1.9c0.4,0.9,0.2,3.1-1.1,3.4c-1.3,0.3-10.4-1.9-10.4-1.9
		S35.5,10.9,36.8,10.3z M39,23.1c0.9,1.1-0.2,3-1,3.4c-0.9,0.5-1.6,0.2-2.2,0.7c-0.6,0.5-0.7,1.2-1.4,2c-0.7,0.7-2.7,1.2-3.5,0
		c-0.7-1.2-1.5-10.9-1.5-10.9S38.1,22,39,23.1z M19.8,23.1c0.9-1.1,9.5-4.8,9.5-4.8s-0.7,9.7-1.5,10.9c-0.7,1.2-2.8,0.7-3.5,0
		c-0.7-0.7-0.7-1.5-1.4-2c-0.7-0.4-1.3-0.3-2.2-0.7C20,26.1,19,24.2,19.8,23.1z M11.3,39.3c-0.4,0.6-1.4,0.4-1.7,0
		c-0.3-0.4-0.3-0.8-0.7-1c-0.3-0.2-0.7-0.2-1.1-0.4c-0.4-0.2-1-1.2-0.5-1.7c0.4-0.6,4.8-2.4,4.8-2.4S11.7,38.7,11.3,39.3z M6.8,34.7
		C6.1,34.6,6,33.5,6.2,33c0.2-0.5,0.6-0.6,0.7-1c0.1-0.4-0.1-0.7,0-1.2c0.1-0.5,0.8-1.3,1.4-1.1c0.7,0.3,3.7,4,3.7,4
		S7.5,34.9,6.8,34.7z M9.6,28.8c-0.1-0.7,0.9-1.2,1.4-1.1c0.5,0.1,0.7,0.4,1.1,0.4c0.4,0,0.6-0.3,1.1-0.4c0.5-0.1,1.5,0.4,1.4,1.1
		c-0.1,0.7-2.5,4.9-2.5,4.9S9.6,29.6,9.6,28.8z M16.4,38c-0.4,0.2-0.8,0.1-1.1,0.4c-0.3,0.3-0.3,0.6-0.7,1c-0.3,0.3-1.4,0.6-1.7,0
		c-0.4-0.6-0.7-5.5-0.7-5.5s4.4,1.9,4.8,2.4C17.4,36.8,16.9,37.7,16.4,38z M12.1,33.8c0,0,3.1-3.7,3.7-4c0.7-0.3,1.3,0.6,1.4,1.1
		c0.1,0.5-0.2,0.8,0,1.2c0.2,0.4,0.5,0.5,0.7,1c0.2,0.4,0.1,1.5-0.6,1.7C16.7,34.9,12.1,33.8,12.1,33.8z M18.2,49
		c-1-0.3-1.1-1.8-0.8-2.5c0.3-0.7,0.8-0.8,1-1.4c0.2-0.6-0.1-1,0-1.8c0.1-0.7,1.1-1.9,2.1-1.5c1,0.4,5.4,5.8,5.4,5.8
		S19.2,49.3,18.2,49z M22.3,40.5c-0.1-1.1,1.3-1.7,2-1.6c0.7,0.1,1,0.6,1.6,0.6c0.6-0.1,0.9-0.4,1.6-0.6c0.7-0.1,2.1,0.5,2,1.6
		c-0.1,1.1-3.7,7.1-3.7,7.1S22.3,41.5,22.3,40.5z M27,55.7c-0.5-0.9-1.1-8-1.1-8s6.3,2.7,7,3.5c0.7,0.8-0.1,2.2-0.8,2.5
		c-0.6,0.3-1.2,0.1-1.6,0.5c-0.5,0.4-0.5,0.9-1,1.4C29.1,56.2,27.6,56.6,27,55.7z M29.2,75.1c-0.1-1.1,1.3-1.7,2-1.6
		c0.7,0.1,1,0.6,1.6,0.6c0.6-0.1,0.9-0.4,1.6-0.6c0.7-0.1,2.1,0.5,2,1.6c-0.1,1.1-3.7,7.1-3.7,7.1S29.3,76.1,29.2,75.1z M27.6,113.6
		c-1.3-0.3-1.5-2.5-1.1-3.4c0.4-0.9,1.2-1.1,1.4-1.9c0.2-0.8-0.2-1.4,0-2.4c0.2-1,1.5-2.6,2.8-2.1c1.3,0.5,7.4,7.9,7.4,7.9
		S28.9,113.9,27.6,113.6z M38.1,111.6c0,0-4.9-8.3-5-9.7c-0.1-1.4,1.8-2.3,2.8-2.1c1,0.2,1.4,0.8,2.2,0.8c0.8-0.1,1.2-0.6,2.2-0.8
		c1-0.1,2.9,0.7,2.8,2.1C42.9,103.4,38.1,111.6,38.1,111.6z M48.5,113.6c-1.3,0.3-10.4-1.9-10.4-1.9s6.1-7.4,7.4-7.9
		c1.3-0.5,2.7,1.1,2.8,2.1c0.2,1-0.3,1.6,0,2.4c0.3,0.8,0.9,1,1.4,1.9C50.1,111.1,49.9,113.2,48.5,113.6z M55.4,98.4
		c-0.8,1.4-3.2,0.9-4,0.1c-0.8-0.8-0.8-1.7-1.6-2.3c-0.8-0.5-1.6-0.3-2.6-0.8c-1-0.5-2.2-2.7-1.2-4c1-1.3,11-5.6,11-5.6
		S56.2,97,55.4,98.4z M51.3,74.5c-0.1-1.7,2.1-2.6,3.2-2.5c1.1,0.2,1.6,0.9,2.5,0.9c0.9-0.1,1.4-0.7,2.5-0.9
		c1.1-0.2,3.3,0.8,3.2,2.5c-0.1,1.7-5.8,11.2-5.8,11.2S51.4,76.1,51.3,74.5z M66.9,95.3c-1,0.5-1.8,0.2-2.6,0.8
		c-0.7,0.6-0.8,1.4-1.6,2.3c-0.8,0.8-3.1,1.4-4-0.1c-0.9-1.4-1.7-12.6-1.7-12.6s10,4.3,11,5.6C69.2,92.6,67.9,94.8,66.9,95.3z
		 M73.6,108.5c-0.4,0.6-1.4,0.4-1.7,0c-0.3-0.4-0.3-0.8-0.7-1c-0.3-0.2-0.7-0.2-1.1-0.4c-0.4-0.2-1-1.2-0.5-1.7
		c0.4-0.6,4.8-2.4,4.8-2.4S74,107.9,73.6,108.5z M69.1,103.9c-0.7-0.2-0.8-1.3-0.6-1.7c0.2-0.5,0.6-0.6,0.7-1c0.1-0.4-0.1-0.7,0-1.2
		c0.1-0.5,0.8-1.3,1.4-1.1c0.7,0.3,3.7,4,3.7,4S69.8,104.1,69.1,103.9z M71.9,98c-0.1-0.7,0.9-1.2,1.4-1.1c0.5,0.1,0.7,0.4,1.1,0.4
		c0.4,0,0.6-0.3,1.1-0.4c0.5-0.1,1.5,0.4,1.4,1.1c-0.1,0.7-2.5,4.9-2.5,4.9S71.9,98.8,71.9,98z M78.7,107.2
		c-0.4,0.2-0.8,0.1-1.1,0.4c-0.3,0.3-0.3,0.6-0.7,1c-0.3,0.3-1.4,0.6-1.7,0c-0.4-0.6-0.7-5.5-0.7-5.5s4.4,1.9,4.8,2.4
		C79.7,106,79.1,106.9,78.7,107.2z M79.7,103.9c-0.7,0.2-5.3-1-5.3-1s3.1-3.7,3.7-4c0.7-0.3,1.3,0.6,1.4,1.1c0.1,0.5-0.2,0.8,0,1.2
		c0.2,0.4,0.5,0.5,0.7,1C80.5,102.7,80.4,103.7,79.7,103.9z M80.2,85.1c-0.6,0.9-2,0.6-2.5,0c-0.5-0.5-0.5-1.1-1-1.4
		c-0.5-0.3-1-0.2-1.6-0.5c-0.6-0.3-1.4-1.7-0.8-2.5c0.7-0.8,7-3.5,7-3.5S80.7,84.2,80.2,85.1z M77.6,69.9c-0.1-1.1,1.3-1.7,2-1.6
		c0.7,0.1,1,0.6,1.6,0.6c0.6-0.1,0.9-0.4,1.6-0.6c0.7-0.1,2.1,0.5,2,1.6c-0.1,1.1-3.7,7.1-3.7,7.1S77.7,70.9,77.6,69.9z M88.3,80.6
		c0.7,0.8-0.1,2.2-0.8,2.5c-0.6,0.3-1.2,0.1-1.6,0.5s-0.5,0.9-1,1.4c-0.5,0.5-2,0.9-2.5,0c-0.5-0.9-1.1-8-1.1-8S87.7,79.8,88.3,80.6
		z M82.9,99.7c-1.3-0.3-1.5-2.5-1.1-3.4c0.4-0.9,1.2-1.1,1.4-1.9c0.2-0.8-0.2-1.4,0-2.4c0.2-1,1.5-2.6,2.8-2.1
		c1.3,0.5,7.4,7.9,7.4,7.9S84.3,100.1,82.9,99.7z M91.9,108.8c-0.7,1.2-2.8,0.7-3.5,0c-0.7-0.7-0.7-1.5-1.4-2
		c-0.7-0.4-1.3-0.3-2.2-0.7c-0.8-0.5-1.9-2.3-1-3.4c0.9-1.1,9.5-4.8,9.5-4.8S92.7,107.5,91.9,108.8z M103,102.7c0.9,1.1-0.2,3-1,3.4
		c-0.9,0.5-1.6,0.2-2.2,0.7c-0.6,0.5-0.7,1.2-1.4,2c-0.7,0.7-2.7,1.2-3.5,0c-0.7-1.2-1.5-10.9-1.5-10.9S102.1,101.6,103,102.7z
		 M93.4,97.8c0,0-4.9-8.3-5-9.7c-0.1-1.4,1.8-2.3,2.8-2.1c1,0.2,1.4,0.8,2.2,0.8c0.8-0.1,1.2-0.6,2.2-0.8c1-0.1,2.9,0.7,2.8,2.1
		C98.3,89.5,93.4,97.8,93.4,97.8z M99.5,70.8c-0.4,0.2-0.8,0.1-1.1,0.4c-0.3,0.3-0.3,0.6-0.7,1c-0.3,0.3-1.4,0.6-1.7,0
		c-0.4-0.6-0.7-5.5-0.7-5.5s4.4,1.9,4.8,2.4C100.4,69.7,99.9,70.6,99.5,70.8z M100.4,67.6c-0.7,0.2-5.3-1-5.3-1s3.1-3.7,3.7-4
		c0.7-0.3,1.3,0.6,1.4,1.1c0.1,0.5-0.2,0.8,0,1.2c0.2,0.4,0.5,0.5,0.7,1C101.2,66.3,101.1,67.4,100.4,67.6z M100.2,30
		c-0.9,0.5-1.6,0.2-2.2,0.7c-0.6,0.5-0.7,1.2-1.4,2c-0.7,0.7-2.7,1.2-3.5,0c-0.7-1.2-1.5-10.9-1.5-10.9s8.6,3.7,9.5,4.8
		C102.1,27.7,101.1,29.5,100.2,30z M102.2,23.6c-1.3,0.3-10.4-1.9-10.4-1.9s6.1-7.4,7.4-7.9c1.3-0.5,2.7,1.1,2.8,2.1
		c0.2,1-0.3,1.6,0,2.4c0.3,0.8,0.9,1,1.4,1.9C103.7,21.1,103.5,23.3,102.2,23.6z M115.1,41c-0.4,0.6-1.4,0.4-1.7,0
		c-0.3-0.4-0.3-0.8-0.7-1c-0.3-0.2-0.7-0.2-1.1-0.4c-0.4-0.2-1-1.2-0.5-1.7c0.4-0.6,4.8-2.4,4.8-2.4S115.5,40.4,115.1,41z
		 M110.6,36.5c-0.7-0.2-0.8-1.3-0.6-1.7c0.2-0.5,0.6-0.6,0.7-1s-0.1-0.7,0-1.2c0.1-0.5,0.8-1.3,1.4-1.1c0.7,0.3,3.7,4,3.7,4
		S111.3,36.7,110.6,36.5z M113.4,30.6c-0.1-0.7,0.9-1.2,1.4-1.1c0.5,0.1,0.7,0.4,1.1,0.4c0.4,0,0.6-0.3,1.1-0.4
		c0.5-0.1,1.5,0.4,1.4,1.1c-0.1,0.7-2.5,4.9-2.5,4.9S113.4,31.3,113.4,30.6z M120.2,39.7c-0.4,0.2-0.8,0.1-1.1,0.4
		c-0.3,0.3-0.3,0.6-0.7,1c-0.3,0.3-1.4,0.6-1.7,0c-0.4-0.6-0.7-5.5-0.7-5.5s4.4,1.9,4.8,2.4C121.2,38.5,120.6,39.5,120.2,39.7z
		 M121.2,36.5c-0.7,0.2-5.3-1-5.3-1s3.1-3.7,3.7-4c0.7-0.3,1.3,0.6,1.4,1.1c0.1,0.5-0.2,0.8,0,1.2c0.2,0.4,0.5,0.5,0.7,1
		C122,35.2,121.9,36.3,121.2,36.5z"/>
	<path id="tree_1_" class="st0" d="M84.4,38.4c16.9,6.6,21,25.7,21.1,26.4c-0.4-0.4-7.8-7.8-13-7.1c-5.3,0.8-4.6-3.6-8.1-4.8
		c-3.5-1.2-3.2,2.4-8.2-0.1c-5-2.5-3-5.3-6.1-6.5c-0.2-0.1-0.3-0.1-0.5-0.2c-0.3-0.2-0.5-0.3-0.8-0.6c0.1,0.2,0.2,0.5,0.3,0.7
		c6.4,17.2,7.6,48.1,7.7,64.1c16,0.9,28,4.5,28,8.7c0,5-16.2,9-36.1,9c-19.9,0-36.1-4-36.1-9c0-4.5,13.5-8.3,31-8.9
		c4.7-22.9,1.3-53.6-0.1-63.9c0,0-2.8,3.5-3.6,4.8c-2.9,4.8-4.6,1.6-6.9,4.5c-2.3,2.9,0.7,6.2-4.2,8.4c-4.9,2.2-7.1,13-7.1,13
		s-7.8-19.9,4.6-35C46.2,42,46,42,45.8,42.1c-5.5,1.1-4.3-2.3-7.9-2c-3.7,0.2-4.2,4.7-9.1,2.6c-4.8-2.1-13.9,3.2-14.3,3.5
		c0.3-0.7,8.7-17,25.5-19.9c-0.6-1.3-0.2-2.6-2.1-3.8c-3.1-2-6.1,1.3-8.8-3.3c-2.7-4.6-13.7-5.6-13.7-5.6S45.3-2.2,62.6,27.2
		C68.7-1.4,98.9,0,98.9,0s-9.5,5.6-10,10.9c-0.5,5.3-4.6,3.6-6.6,6.7c-1.2,1.9-0.3,2.9-0.3,4.3c16.9-4.6,31.6,7.2,31.6,7.2
		s-11-1.1-14.5,2.9c-3.5,4-5.9,0.2-9.3,1.5C86.6,34.8,88.6,37.1,84.4,38.4z"/>
</g>
<g id="row1">
	<path id="surfing" class="st0" d="M44.4,50.8l16,36.5c-28.5,10.8-53,13.4-59.1,6l36.4-16l-1.3-3l-36.4,16
		C-1.3,80.8,17.2,64.6,44.4,50.8z M63.5,86.2c1.5-0.6,3.1-1.2,4.6-1.9L51.9,47.2c-1.5,0.7-3,1.4-4.5,2.1L63.5,86.2z M54.9,45.9
		L71.2,83c0.3-0.1,0.7-0.3,1-0.4c1.2-0.5,2.4-1.1,3.5-1.6L59.4,43.9c-1.2,0.5-2.4,1-3.6,1.5C55.5,45.6,55.2,45.7,54.9,45.9z
		 M62.5,42.6l16.2,37c31.6-15,53-33.9,48.8-43.5C123.2,26.5,94.9,29.5,62.5,42.6z"/>
	<path id="Deck_x5F_Chair" class="st0" d="M128,98.9c0,2.6-2.1,4.7-4.7,4.7h-5.1v12.6c0,1.6-1.3,2.8-2.8,2.8c-1.6,0-2.8-1.3-2.8-2.8
		v-12.6l-56.2,0.1v12.5c0,1.6-1.3,2.8-2.8,2.8c-1.6,0-2.8-1.3-2.8-2.8v-12.5h-1.2L23.6,66.1L3.3,59.7c-2.5-0.8-3.9-3.4-3.1-5.9
		c0.8-2.5,3.4-3.9,5.9-3.1l23.4,7.4l24.9,36.1l30.9,0l-17-50.4c-3.2,2.1-5.2,5.4-5.7,9.1l-0.6,0.2c-3.4-3.3-8.5-4.5-13.2-2.9
		c-4.7,1.7-7.9,5.8-8.5,10.5l-0.3,0.1c-6-17.2,2.6-36,19.4-43.5l-1.6-4.7c-0.5-1.5,0.3-3.1,1.8-3.6c1.5-0.5,3.1,0.3,3.6,1.8l1.6,4.6
		c17.8-4.8,36.4,4.5,42.5,21.7l-0.3,0.1c-3.4-3.3-8.5-4.5-13.2-2.9c-4.7,1.7-7.9,5.8-8.5,10.5l-0.9,0.3c-2.8-2.7-6.8-4-10.7-3.5
		l17.6,52c0,0.1,0.1,0.2,0.1,0.4l31.9,0C125.9,94.2,128,96.3,128,98.9z"/>
	<g id="coconut">
		<path class="st2" d="M110.9,1.3c-1-1.3-2.8-1.7-4.2-0.7L67.7,28l-5.2,19.9c-0.6,0-1.2,0-1.8,0c-28.4,0-32.7,6.6-32.8,6.6
			c-7,7.8-11.3,18.1-11.3,29.4c0,24.3,19.7,44.1,44.1,44.1c24.3,0,44.1-19.8,44.1-44.1c0-11.3-4.3-21.6-11.3-29.4
			c-0.1,0-5.4-5.5-25-6.4l4.4-16.5l37.2-26.2C111.5,4.5,111.8,2.6,110.9,1.3z M60.6,51.6h0.8l-2.2,6.9c-12.4-0.1-21.4-2.2-25.7-3.6
			C38.1,53.4,48.2,51.6,60.6,51.6z M87.5,54.8c-4.2,1.3-12.1,3.1-21.9,3.5l2-6.6C76.7,52.3,83.8,53.7,87.5,54.8z"/>
		<path id="bg" class="st3" d="M98.8,70.5l-6.7,12.4l-12.8-9.4L66.8,82c0,0-11.5-2.5-18.5-9.2l-10.9,5.9L24.5,65.6
			c1.3-2,4.1-6.2,5-7.5c1,0.4,16.2,5.6,31.2,5.6s30.8-5.3,30.8-5.3S96.3,65,98.8,70.5z"/>
	</g>
	<path id="drum_1_" class="st0" d="M22.4,14.3c0.1,9.6,1.2,53.9,12.5,82C19.7,77.5,9.6,44.5,9.6,6.8C9.6,9.1,11.2,11.9,22.4,14.3z
		 M85.3,102.8c14-24.6,15.8-75.6,16-87.7c-3.7,0.6-7.8,1.2-12.3,1.6c-0.4,9.6-2.9,57-10.1,86.1h-4.4c7-27.9,9.7-75.1,10.2-85.8
		c-6.1,0.4-12.7,0.7-19.6,0.7v85.1h-4.3V17.7c-6.1-0.1-12.1-0.3-17.6-0.7c0.5,10.6,3.1,57.9,10.2,85.8H49
		C41.9,73.7,39.4,26.3,39,16.7c-4.4-0.4-8.6-0.9-12.2-1.6c0.2,12.1,2,63.1,16,87.7H41L35.5,128h57L87,102.8H85.3z M114.2,6.8
		C112.4,4.3,94.6,0,64,0C33.4,0,15.6,4.3,13.8,6.8c1.9,2.5,19.6,6.8,50.2,6.8C94.6,13.7,112.4,9.4,114.2,6.8z M105.6,14.3
		c-0.1,9.7-1.3,53.9-12.5,82c15.2-18.8,25.3-51.8,25.3-89.5C118.4,9.1,116.8,11.9,105.6,14.3z"/>
	<path id="watermelon_1_" class="st0" d="M64,96C28.7,96,0,67.3,0,32h6.2c0,31.9,25.9,57.8,57.8,57.8s57.8-25.9,57.8-57.8h6.2
		C128,67.3,99.3,96,64,96z M116.4,32c0,29-23.5,52.4-52.4,52.4S11.6,61,11.6,32H116.4z M34.1,56.2c0-3.1-1.3-5.6-2.9-5.6
		c-1.6,0-2.9,2.5-2.9,5.6c0,3.1,1.3,5.6,2.9,5.6C32.8,61.7,34.1,59.3,34.1,56.2z M41.8,37.6c-1.2-1.4-3.9-1-6.1,0.9
		c-2.1,1.9-2.9,4.5-1.6,5.9c1.2,1.4,4,1,6.1-0.9C42.3,41.7,43,39,41.8,37.6z M56,68.8c-1.2-1.4-3.9-1-6.1,0.9
		c-2.1,1.9-2.9,4.5-1.6,5.9c1.2,1.4,4,1,6.1-0.9C56.5,72.8,57.2,70.2,56,68.8z M58.8,46.1c-1.2-1.4-3.9-1-6.1,0.9
		c-2.1,1.9-2.9,4.5-1.6,5.9c1.2,1.4,4,1,6.1-0.9C59.3,50.2,60,47.5,58.8,46.1z M78.6,63.1c-1.2-1.4-3.9-1-6.1,0.9
		c-2.1,1.9-2.9,4.5-1.6,5.9c1.2,1.4,4,1,6.1-0.9C79.2,67.2,79.9,64.5,78.6,63.1z M78.6,43.3c-1.2-1.4-3.9-1-6.1,0.9
		c-2.1,1.9-2.9,4.5-1.6,5.9c1.2,1.4,4,1,6.1-0.9C79.2,47.3,79.9,44.7,78.6,43.3z M97.1,53c-1.9-2.1-4.5-2.8-5.9-1.6s-1,3.9,0.9,6.1
		c1.9,2.1,4.5,2.9,5.9,1.6C99.4,57.8,99,55.1,97.1,53z M103.7,44.9c1.4-1.2,1-4-0.9-6.1c-1.9-2.1-4.5-2.8-5.9-1.6
		c-1.4,1.2-1,3.9,0.9,6.1C99.7,45.4,102.3,46.1,103.7,44.9z"/>
</g>
</svg>
